<svg width="144" height="32" viewBox="0 0 144 32" fill="none" xmlns="http://www.w3.org/2000/svg">
<path d="M2.42834 20.5971V16.521H10.4504C12.5462 16.521 14.1723 15.979 15.3286 14.895C16.4994 13.7964 17.0848 12.2788 17.0848 10.3419V10.2986C17.0848 8.33279 16.4994 6.80789 15.3286 5.72383C14.1723 4.63977 12.5462 4.09774 10.4504 4.09774H2.42834V3.1665e-07H11.6645C13.717 3.1665e-07 15.5165 0.433624 17.0631 1.30087C18.6242 2.15366 19.8455 3.35335 20.7272 4.89994C21.6089 6.43208 22.0498 8.21716 22.0498 10.2552V10.2986C22.0498 12.3366 21.6089 14.1361 20.7272 15.6972C19.8455 17.2438 18.6242 18.4507 17.0631 19.3179C15.5165 20.1707 13.717 20.5971 11.6645 20.5971H2.42834ZM4.98183e-05 31.2859V3.1665e-07H4.85663V31.2859H4.98183e-05ZM25.9307 31.2859V3.1665e-07H30.6355V12.2282H30.7439C31.3366 10.8984 32.2327 9.87216 33.4324 9.14945C34.6465 8.41229 36.1064 8.04371 37.812 8.04371C39.4453 8.04371 40.8618 8.42675 42.0615 9.19281C43.2757 9.94443 44.2152 11.0068 44.8801 12.3799C45.5594 13.7531 45.8991 15.3575 45.8991 17.1932V31.2859H41.1943V18.0821C41.1943 16.1886 40.739 14.7143 39.8283 13.6591C38.9177 12.604 37.6385 12.0764 35.9908 12.0764C34.9212 12.0764 33.9817 12.3294 33.1722 12.8352C32.3773 13.3411 31.7557 14.0422 31.3076 14.9383C30.8596 15.8345 30.6355 16.8824 30.6355 18.0821V31.2859H25.9307ZM57.1299 31.6979C55.6122 31.6979 54.2825 31.4088 53.1406 30.8306C51.9987 30.2525 51.1098 29.443 50.4738 28.4023C49.8378 27.3616 49.5198 26.1619 49.5198 24.8033V24.7599C49.5198 23.4301 49.8523 22.2882 50.5172 21.3343C51.182 20.3658 52.1432 19.5998 53.4008 19.0361C54.6727 18.4724 56.2049 18.1399 57.9972 18.0387L66.6263 17.5184V20.8139L58.6259 21.3126C57.2239 21.3993 56.1398 21.739 55.3737 22.3316C54.6221 22.9098 54.2463 23.6831 54.2463 24.6515V24.6948C54.2463 25.6922 54.6221 26.4799 55.3737 27.0581C56.1398 27.6363 57.1516 27.9253 58.4091 27.9253C59.5076 27.9253 60.4905 27.7013 61.3577 27.2532C62.2394 26.8051 62.9332 26.1908 63.4391 25.4103C63.945 24.6153 64.198 23.7264 64.198 22.7435V15.9573C64.198 14.6998 63.8077 13.7169 63.0272 13.0087C62.2467 12.286 61.1265 11.9246 59.6666 11.9246C58.3224 11.9246 57.2383 12.2137 56.4144 12.7919C55.605 13.3701 55.0991 14.1144 54.8968 15.025L54.8534 15.2202H50.4304L50.4521 14.9817C50.5677 13.6664 51.0086 12.4884 51.7747 11.4477C52.5407 10.3925 53.6031 9.56139 54.9618 8.95432C56.3205 8.34725 57.9321 8.04371 59.7967 8.04371C61.6613 8.04371 63.2729 8.35448 64.6316 8.976C65.9903 9.59753 67.0454 10.472 67.797 11.5994C68.5487 12.7268 68.9245 14.0494 68.9245 15.5671V31.2859H64.198V27.6868H64.1112C63.6632 28.5107 63.085 29.2262 62.3768 29.8333C61.6685 30.4259 60.8663 30.8884 59.9701 31.2209C59.0884 31.5389 58.1417 31.6979 57.1299 31.6979ZM73.4342 31.2859V8.47734H78.1606V12.3799H78.2474C78.6087 11.0357 79.2519 9.98056 80.177 9.21449C81.1021 8.43397 82.215 8.04371 83.5159 8.04371C83.8628 8.04371 84.1736 8.06539 84.4482 8.10876C84.7373 8.13766 84.9685 8.1738 85.142 8.21716V12.5751C84.9541 12.5028 84.6722 12.445 84.2964 12.4016C83.9206 12.3438 83.5014 12.3149 83.0389 12.3149C82.0416 12.3149 81.1743 12.5317 80.4372 12.9653C79.7 13.3845 79.1363 13.9988 78.746 14.8082C78.3558 15.6032 78.1606 16.5644 78.1606 17.6918V31.2859H73.4342ZM88.0473 31.2859V8.47734H92.7738V12.0114H92.8605C93.3519 10.8117 94.1541 9.85048 95.2671 9.12777C96.3801 8.40506 97.6809 8.04371 99.1697 8.04371C100.21 8.04371 101.15 8.21716 101.988 8.56406C102.841 8.91096 103.571 9.42408 104.178 10.1034C104.785 10.7683 105.233 11.5777 105.522 12.5317H105.631C106.021 11.6066 106.563 10.8117 107.257 10.1468C107.965 9.46744 108.782 8.94709 109.707 8.58574C110.646 8.22439 111.658 8.04371 112.742 8.04371C114.245 8.04371 115.553 8.3617 116.666 8.99768C117.779 9.61921 118.647 10.4937 119.268 11.6211C119.89 12.7485 120.2 14.0711 120.2 15.5888V31.2859H115.474V16.7379C115.474 15.7405 115.3 14.895 114.954 14.2012C114.621 13.5074 114.13 12.9798 113.479 12.6184C112.843 12.2571 112.056 12.0764 111.116 12.0764C110.191 12.0764 109.374 12.286 108.666 12.7052C107.972 13.1243 107.423 13.7097 107.018 14.4613C106.628 15.213 106.433 16.0657 106.433 17.0197V31.2859H101.815V16.391C101.815 15.5093 101.634 14.7504 101.273 14.1144C100.926 13.464 100.434 12.9653 99.7984 12.6184C99.1625 12.2571 98.3964 12.0764 97.5002 12.0764C96.5896 12.0764 95.773 12.3004 95.0503 12.7485C94.342 13.1821 93.7855 13.782 93.3808 14.5481C92.9761 15.3141 92.7738 16.1958 92.7738 17.1932V31.2859H88.0473ZM131.41 31.6979C129.892 31.6979 128.562 31.4088 127.42 30.8306C126.278 30.2525 125.389 29.443 124.753 28.4023C124.117 27.3616 123.799 26.1619 123.799 24.8033V24.7599C123.799 23.4301 124.132 22.2882 124.797 21.3343C125.462 20.3658 126.423 19.5998 127.68 19.0361C128.952 18.4724 130.485 18.1399 132.277 18.0387L140.906 17.5184V20.8139L132.906 21.3126C131.504 21.3993 130.419 21.739 129.653 22.3316C128.902 22.9098 128.526 23.6831 128.526 24.6515V24.6948C128.526 25.6922 128.902 26.4799 129.653 27.0581C130.419 27.6363 131.431 27.9253 132.689 27.9253C133.787 27.9253 134.77 27.7013 135.637 27.2532C136.519 26.8051 137.213 26.1908 137.719 25.4103C138.225 24.6153 138.478 23.7264 138.478 22.7435V15.9573C138.478 14.6998 138.087 13.7169 137.307 13.0087C136.526 12.286 135.406 11.9246 133.946 11.9246C132.602 11.9246 131.518 12.2137 130.694 12.7919C129.885 13.3701 129.379 14.1144 129.176 15.025L129.133 15.2202H124.71L124.732 14.9817C124.847 13.6664 125.288 12.4884 126.054 11.4477C126.82 10.3925 127.883 9.56139 129.241 8.95432C130.6 8.34725 132.212 8.04371 134.076 8.04371C135.941 8.04371 137.553 8.35448 138.911 8.976C140.27 9.59753 141.325 10.472 142.077 11.5994C142.828 12.7268 143.204 14.0494 143.204 15.5671V31.2859H138.478V27.6868H138.391C137.943 28.5107 137.365 29.2262 136.656 29.8333C135.948 30.4259 135.146 30.8884 134.25 31.2209C133.368 31.5389 132.421 31.6979 131.41 31.6979Z" fill="black"/>
</svg>
